<?xml version="1.0" encoding="UTF-8"?>
<!DOCTYPE svg PUBLIC "-//W3C//DTD SVG 1.1//EN" "http://www.w3.org/Graphics/SVG/1.1/DTD/svg11.dtd">
<svg xmlns="http://www.w3.org/2000/svg" version="1.1" width="339px" height="327px" style="shape-rendering:geometricPrecision; text-rendering:geometricPrecision; image-rendering:optimizeQuality; fill-rule:evenodd; clip-rule:evenodd" xmlns:xlink="http://www.w3.org/1999/xlink">
<g><path style="opacity:1" fill="#fdfdfd" d="M 119.5,115.5 C 121.482,118.81 123.815,121.81 126.5,124.5C 129.84,131.173 134.84,136.173 141.5,139.5C 136.34,153.454 131.173,167.454 126,181.5C 123.341,188.649 121.174,195.982 119.5,203.5C 116.052,210.173 113.386,217.173 111.5,224.5C 111.157,220.374 111.157,216.041 111.5,211.5C 111.664,208.813 111.497,206.146 111,203.5C 97.8353,225.162 84.6686,246.829 71.5,268.5C 70.5027,247.006 70.1693,225.34 70.5,203.5C 74.803,198.353 78.9696,193.02 83,187.5C 83.6398,184.446 82.4732,182.446 79.5,181.5C 74.8942,176.721 70.3942,171.721 66,166.5C 61.7209,143.55 56.8875,120.717 51.5,98C 51.8333,97.5 52.1667,97 52.5,96.5C 71.391,105.446 90.391,114.113 109.5,122.5C 109.833,121.667 110.167,120.833 110.5,120C 109.76,113.741 108.927,107.574 108,101.5C 111.613,106.421 115.446,111.088 119.5,115.5 Z"/></g>
<g><path style="opacity:1" fill="#fcfcfc" d="M 279.5,171.5 C 276.452,173.882 273.785,176.548 271.5,179.5C 268.728,180.436 266.728,182.27 265.5,185C 269.632,191.624 274.299,197.79 279.5,203.5C 279.5,211.5 279.5,219.5 279.5,227.5C 279.5,235.5 279.5,243.5 279.5,251.5C 278.671,259.323 278.171,267.323 278,275.5C 273.908,266.97 269.075,258.97 263.5,251.5C 261.641,246.777 259.474,242.11 257,237.5C 251.701,228.535 246.201,219.869 240.5,211.5C 240.291,210.078 239.791,208.745 239,207.5C 238.502,210.482 238.335,213.482 238.5,216.5C 238.795,218.735 238.461,220.735 237.5,222.5C 235.279,215.906 232.612,209.573 229.5,203.5C 228.498,199.16 227.331,194.826 226,190.5C 225.623,189.058 224.79,188.058 223.5,187.5C 219.017,171.176 213.35,155.176 206.5,139.5C 209.13,137.179 212.13,135.346 215.5,134C 218.407,130.605 221.073,127.105 223.5,123.5C 229.136,117.023 234.636,110.356 240,103.5C 240.499,109.157 240.666,114.824 240.5,120.5C 240.5,120.833 240.5,121.167 240.5,121.5C 240.56,122.043 240.893,122.376 241.5,122.5C 245.608,120.152 249.608,117.819 253.5,115.5C 265.328,111.253 276.661,105.92 287.5,99.5C 290.477,98.9292 293.31,97.9292 296,96.5C 296.167,97.3333 296.333,98.1667 296.5,99C 292.099,120.441 287.932,141.941 284,163.5C 283.262,166.648 281.762,169.315 279.5,171.5 Z"/></g>
<g><path style="opacity:0.065" fill="#1b1b1b" d="M 287.5,99.5 C 276.661,105.92 265.328,111.253 253.5,115.5C 264.341,109.215 275.674,103.881 287.5,99.5 Z"/></g>
<g><path style="opacity:0.42" fill="#232323" d="M 241.5,120.5 C 241.167,120.5 240.833,120.5 240.5,120.5C 240.666,114.824 240.499,109.157 240,103.5C 234.636,110.356 229.136,117.023 223.5,123.5C 228.758,114.658 234.758,106.325 241.5,98.5C 242.357,99.7357 243.023,101.069 243.5,102.5C 242.419,108.666 241.752,114.666 241.5,120.5 Z"/></g>
<g><path style="opacity:0.173" fill="#242424" d="M 119.5,115.5 C 115.446,111.088 111.613,106.421 108,101.5C 108.927,107.574 109.76,113.741 110.5,120C 110.167,120.833 109.833,121.667 109.5,122.5C 90.391,114.113 71.391,105.446 52.5,96.5C 52.1667,97 51.8333,97.5 51.5,98C 56.8875,120.717 61.7209,143.55 66,166.5C 70.3942,171.721 74.8942,176.721 79.5,181.5C 73.8957,177.731 69.0623,173.064 65,167.5C 59.4723,143.192 54.4723,118.859 50,94.5C 69.4027,102.185 88.7361,110.852 108,120.5C 107.624,114.185 106.957,107.852 106,101.5C 105.308,100.975 104.808,100.308 104.5,99.5C 105.723,98.3861 107.056,98.2195 108.5,99C 112.559,104.299 116.226,109.799 119.5,115.5 Z"/></g>
<g><path style="opacity:0.18" fill="#1a1a1a" d="M 253.5,115.5 C 249.608,117.819 245.608,120.152 241.5,122.5C 240.893,122.376 240.56,122.043 240.5,121.5C 241.167,121.5 241.5,121.167 241.5,120.5C 245.333,118.444 249.333,116.778 253.5,115.5 Z"/></g>
<g><path style="opacity:0.282" fill="#1b1b1b" d="M 119.5,115.5 C 122.956,117.623 125.289,120.623 126.5,124.5C 123.815,121.81 121.482,118.81 119.5,115.5 Z"/></g>
<g><path style="opacity:0.067" fill="#222222" d="M 280.5,172.5 C 280.5,171.833 280.167,171.5 279.5,171.5C 281.762,169.315 283.262,166.648 284,163.5C 287.932,141.941 292.099,120.441 296.5,99C 296.333,98.1667 296.167,97.3333 296,96.5C 293.31,97.9292 290.477,98.9292 287.5,99.5C 290.654,97.6623 293.82,95.6623 297,93.5C 298.352,95.6399 298.852,97.8066 298.5,100C 293.497,122.347 288.997,144.847 285,167.5C 283.264,169.063 281.764,170.73 280.5,172.5 Z"/></g>
<g><path style="opacity:0.263" fill="#232323" d="M 126.5,124.5 C 129.588,126.76 132.255,129.593 134.5,133C 138.498,134.153 141.498,136.486 143.5,140C 135.563,161.326 127.563,182.493 119.5,203.5C 121.174,195.982 123.341,188.649 126,181.5C 131.173,167.454 136.34,153.454 141.5,139.5C 134.84,136.173 129.84,131.173 126.5,124.5 Z"/></g>
<g><path style="opacity:0.027" fill="#000000" d="M 203.5,138.5 C 204.234,139.878 204.901,141.378 205.5,143C 205.167,143.167 204.833,143.333 204.5,143.5C 203.548,141.955 203.215,140.288 203.5,138.5 Z"/></g>
<g><path style="opacity:0.376" fill="#191919" d="M 163.5,156.5 C 158.546,151.883 153.546,147.216 148.5,142.5C 144.533,153.782 140.2,164.782 135.5,175.5C 138.98,163.275 143.147,151.275 148,139.5C 153.764,144.758 158.931,150.424 163.5,156.5 Z"/></g>
<g><path style="opacity:1" fill="#fbfbfb" d="M 163.5,156.5 C 166.385,161.059 170.052,165.059 174.5,168.5C 180.521,163.146 186.188,157.479 191.5,151.5C 193.341,150.598 194.674,149.264 195.5,147.5C 197.148,146.19 198.814,144.857 200.5,143.5C 201.949,147.897 203.949,151.897 206.5,155.5C 206.5,155.833 206.5,156.167 206.5,156.5C 206.182,159.481 207.182,161.815 209.5,163.5C 209.402,165.553 210.069,167.22 211.5,168.5C 212.352,172.155 212.852,175.821 213,179.5C 205.184,186.808 198.017,194.474 191.5,202.5C 190.527,202.987 189.527,203.487 188.5,204C 184.132,208.839 179.799,213.673 175.5,218.5C 172.991,217.079 170.657,215.412 168.5,213.5C 158.902,202.4 148.736,191.733 138,181.5C 136.331,179.831 135.498,177.831 135.5,175.5C 140.2,164.782 144.533,153.782 148.5,142.5C 153.546,147.216 158.546,151.883 163.5,156.5 Z"/></g>
<g><path style="opacity:0.067" fill="#202020" d="M 206.5,155.5 C 203.949,151.897 201.949,147.897 200.5,143.5C 198.814,144.857 197.148,146.19 195.5,147.5C 196.729,144.434 198.563,141.767 201,139.5C 203.521,144.563 205.355,149.896 206.5,155.5 Z"/></g>
<g><path style="opacity:0.059" fill="#242424" d="M 223.5,123.5 C 221.073,127.105 218.407,130.605 215.5,134C 212.13,135.346 209.13,137.179 206.5,139.5C 213.35,155.176 219.017,171.176 223.5,187.5C 216.934,171.815 210.934,155.815 205.5,139.5C 205.608,138.558 205.941,137.725 206.5,137C 209.661,135.587 212.661,133.92 215.5,132C 217.717,128.62 220.384,125.787 223.5,123.5 Z"/></g>
<g><path style="opacity:0.42" fill="#333333" d="M 195.5,147.5 C 194.674,149.264 193.341,150.598 191.5,151.5C 191.894,149.29 193.227,147.957 195.5,147.5 Z"/></g>
<g><path style="opacity:0.08" fill="#242424" d="M 206.5,156.5 C 208.293,158.426 209.293,160.759 209.5,163.5C 207.182,161.815 206.182,159.481 206.5,156.5 Z"/></g>
<g><path style="opacity:0.204" fill="#222222" d="M 191.5,151.5 C 186.188,157.479 180.521,163.146 174.5,168.5C 170.052,165.059 166.385,161.059 163.5,156.5C 167.589,159.315 171.255,162.648 174.5,166.5C 179.909,161.083 185.576,156.083 191.5,151.5 Z"/></g>
<g><path style="opacity:0.076" fill="#0f0f0f" d="M 209.5,163.5 C 210.931,164.78 211.598,166.447 211.5,168.5C 210.069,167.22 209.402,165.553 209.5,163.5 Z"/></g>
<g><path style="opacity:0.157" fill="#232323" d="M 279.5,171.5 C 280.167,171.5 280.5,171.833 280.5,172.5C 277.792,175.209 274.792,177.542 271.5,179.5C 273.785,176.548 276.452,173.882 279.5,171.5 Z"/></g>
<g><path style="opacity:0.51" fill="#222222" d="M 135.5,175.5 C 135.498,177.831 136.331,179.831 138,181.5C 148.736,191.733 158.902,202.4 168.5,213.5C 167.761,213.631 167.094,213.464 166.5,213C 155.699,201.971 144.866,190.805 134,179.5C 133.227,177.648 133.727,176.314 135.5,175.5 Z"/></g>
<g><path style="opacity:0.031" fill="#232323" d="M 211.5,168.5 C 214.152,172.117 215.152,176.117 214.5,180.5C 207.709,187.792 200.709,194.959 193.5,202C 192.906,202.464 192.239,202.631 191.5,202.5C 198.017,194.474 205.184,186.808 213,179.5C 212.852,175.821 212.352,172.155 211.5,168.5 Z"/></g>
<g><path style="opacity:0.325" fill="#242424" d="M 79.5,181.5 C 82.4732,182.446 83.6398,184.446 83,187.5C 78.9696,193.02 74.803,198.353 70.5,203.5C 70.1667,203.5 69.8333,203.5 69.5,203.5C 73.4448,197.129 77.7782,190.962 82.5,185C 80.9443,184.28 79.9443,183.113 79.5,181.5 Z"/></g>
<g><path style="opacity:0.271" fill="#212121" d="M 271.5,179.5 C 270.945,181.729 269.611,183.395 267.5,184.5C 271.772,190.721 275.772,197.054 279.5,203.5C 274.299,197.79 269.632,191.624 265.5,185C 266.728,182.27 268.728,180.436 271.5,179.5 Z"/></g>
<g><path style="opacity:0.357" fill="#2a2a2a" d="M 223.5,187.5 C 224.79,188.058 225.623,189.058 226,190.5C 227.331,194.826 228.498,199.16 229.5,203.5C 226.929,198.463 224.929,193.129 223.5,187.5 Z"/></g>
<g><path style="opacity:0.075" fill="#202020" d="M 191.5,202.5 C 187.167,208.833 181.833,214.167 175.5,218.5C 179.799,213.673 184.132,208.839 188.5,204C 189.527,203.487 190.527,202.987 191.5,202.5 Z"/></g>
<g><path style="opacity:0.527" fill="#404040" d="M 279.5,203.5 C 280.478,203.811 281.145,204.478 281.5,205.5C 280.535,212.776 280.201,220.109 280.5,227.5C 280.167,227.5 279.833,227.5 279.5,227.5C 279.5,219.5 279.5,211.5 279.5,203.5 Z"/></g>
<g><path style="opacity:0.051" fill="#141414" d="M 168.5,213.5 C 170.657,215.412 172.991,217.079 175.5,218.5C 172.011,219.079 169.677,217.413 168.5,213.5 Z"/></g>
<g><path style="opacity:0.251" fill="#1f1f1f" d="M 119.5,203.5 C 116.701,213.897 113.701,224.23 110.5,234.5C 109.833,234.5 109.5,234.833 109.5,235.5C 108.475,234.626 107.808,233.459 107.5,232C 108.05,228.676 108.717,225.509 109.5,222.5C 109.337,224.857 109.503,227.19 110,229.5C 111.009,227.975 111.509,226.308 111.5,224.5C 113.386,217.173 116.052,210.173 119.5,203.5 Z"/></g>
<g><path style="opacity:0.014" fill="#191919" d="M 229.5,203.5 C 232.612,209.573 235.279,215.906 237.5,222.5C 238.148,224.086 238.648,225.753 239,227.5C 239.498,224.183 239.665,220.85 239.5,217.5C 240.38,219.137 241.046,220.97 241.5,223C 241.137,226.395 241.137,229.895 241.5,233.5C 239.058,233.881 238.391,233.214 239.5,231.5C 235.56,222.422 232.227,213.088 229.5,203.5 Z"/></g>
<g><path style="opacity:0.855" fill="#979797" d="M 238.5,216.5 C 238.833,216.5 239.167,216.5 239.5,216.5C 239.5,216.833 239.5,217.167 239.5,217.5C 239.665,220.85 239.498,224.183 239,227.5C 238.648,225.753 238.148,224.086 237.5,222.5C 238.461,220.735 238.795,218.735 238.5,216.5 Z"/></g>
<g><path style="opacity:0.016" fill="#232323" d="M 69.5,203.5 C 69.3334,226.169 69.5,248.836 70,271.5C 71.0386,270.756 71.5386,269.756 71.5,268.5C 84.6686,246.829 97.8353,225.162 111,203.5C 111.497,206.146 111.664,208.813 111.5,211.5C 110.833,214.167 110.167,216.833 109.5,219.5C 109.429,216.403 109.262,213.07 109,209.5C 103.387,218.551 97.8875,227.718 92.5,237C 93.4158,237.278 94.0825,237.778 94.5,238.5C 96.5099,242.179 98.5099,245.846 100.5,249.5C 100.631,250.239 100.464,250.906 100,251.5C 99.1667,250.5 98.3333,249.5 97.5,248.5C 96.7025,248.957 96.3691,249.624 96.5,250.5C 93.894,251.85 93.894,253.35 96.5,255C 94.5188,255.605 94.1854,256.605 95.5,258C 93.5861,259.827 91.5861,259.827 89.5,258C 89.4867,253.784 89.8201,249.451 90.5,245C 90.3699,243.941 89.8699,243.108 89,242.5C 83.3012,252.187 77.6345,261.853 72,271.5C 71.221,272.728 70.221,273.728 69,274.5C 68.5,274.167 68,273.833 67.5,273.5C 68.1571,250.039 68.8237,226.706 69.5,203.5 Z"/></g>
<g><path style="opacity:0.808" fill="#9f9f9f" d="M 111.5,211.5 C 111.157,216.041 111.157,220.374 111.5,224.5C 111.509,226.308 111.009,227.975 110,229.5C 109.503,227.19 109.337,224.857 109.5,222.5C 109.5,221.5 109.5,220.5 109.5,219.5C 110.167,216.833 110.833,214.167 111.5,211.5 Z"/></g>
<g><path style="opacity:0.919" fill="#d0d0d0" d="M 69.5,203.5 C 69.8333,203.5 70.1667,203.5 70.5,203.5C 70.1693,225.34 70.5027,247.006 71.5,268.5C 71.5386,269.756 71.0386,270.756 70,271.5C 69.5,248.836 69.3334,226.169 69.5,203.5 Z"/></g>
<g><path style="opacity:0.035" fill="#000000" d="M 110.5,234.5 C 111.167,234.5 111.5,234.833 111.5,235.5C 111.167,235.167 110.833,234.833 110.5,234.5 Z"/></g>
<g><path style="opacity:0.016" fill="#000000" d="M 109.5,235.5 C 109.833,235.5 110.167,235.5 110.5,235.5C 110.315,236.17 109.981,236.17 109.5,235.5 Z"/></g>
<g><path style="opacity:0.027" fill="#000000" d="M 111.5,235.5 C 112.833,236.167 112.833,236.167 111.5,235.5 Z"/></g>
<g><path style="opacity:0.013" fill="#000000" d="M 238.5,238.5 C 237.833,238.5 237.167,238.5 236.5,238.5C 235.15,237.35 235.316,236.683 237,236.5C 238.03,236.836 238.53,237.503 238.5,238.5 Z"/></g>
<g><path style="opacity:0.075" fill="#070707" d="M 279.5,227.5 C 279.833,227.5 280.167,227.5 280.5,227.5C 281.097,227.735 281.43,228.235 281.5,229C 280.88,236.643 280.213,244.143 279.5,251.5C 279.5,243.5 279.5,235.5 279.5,227.5 Z"/></g>
<g><path style="opacity:0.053" fill="#0a0a0a" d="M 223.5,238.5 C 223.5,245.167 223.5,251.833 223.5,258.5C 221.389,259.742 219.389,259.742 217.5,258.5C 218.404,257.791 218.737,256.791 218.5,255.5C 219.735,255.721 220.735,256.388 221.5,257.5C 222.77,253.484 222.77,249.484 221.5,245.5C 221.167,245.167 220.833,244.833 220.5,244.5C 219.824,245.602 219.158,246.602 218.5,247.5C 218.951,243.896 217.951,240.896 215.5,238.5C 215.56,237.957 215.893,237.624 216.5,237.5C 217.59,238.727 218.924,239.56 220.5,240C 219.269,241.183 219.269,242.349 220.5,243.5C 221.001,241.345 222.001,239.678 223.5,238.5 Z"/></g>
<g><path style="opacity:0.963" fill="#c7c7c7" d="M 94.5,238.5 C 95.4608,241.426 96.1274,244.426 96.5,247.5C 95.5,247.5 94.5,247.5 93.5,247.5C 92.1429,248.076 91.8096,251.41 92.5,257.5C 91.5037,251.202 91.1703,244.868 91.5,238.5C 92.5,238.5 93.5,238.5 94.5,238.5 Z"/></g>
<g><path style="opacity:0.659" fill="#616161" d="M 169.5,239.5 C 169.5,240.167 169.5,240.833 169.5,241.5C 167.754,242.249 166.754,243.583 166.5,245.5C 167.829,249.519 167.829,253.519 166.5,257.5C 165.527,255.052 165.194,252.385 165.5,249.5C 165.082,248.778 164.416,248.278 163.5,248C 165.495,247.076 165.828,245.91 164.5,244.5C 164.772,242.686 164.939,240.686 165,238.5C 166.915,237.084 168.415,237.418 169.5,239.5 Z"/></g>
<g><path style="opacity:0.974" fill="#dcdcdc" d="M 125.5,238.5 C 122.663,240.402 119.329,241.069 115.5,240.5C 115.5,242.833 115.5,245.167 115.5,247.5C 127.5,248.167 127.5,248.833 115.5,249.5C 115.5,251.5 115.5,253.5 115.5,255.5C 115.5,256.833 114.833,257.5 113.5,257.5C 113.5,251.167 113.5,244.833 113.5,238.5C 117.5,238.5 121.5,238.5 125.5,238.5 Z"/></g>
<g><path style="opacity:0.161" fill="#2a2a2a" d="M 153.5,245.5 C 152.207,244.158 151.374,242.491 151,240.5C 149.989,239.663 148.822,239.33 147.5,239.5C 147.248,243.327 145.915,246.66 143.5,249.5C 144.531,245.573 145.865,241.739 147.5,238C 151.911,238.236 153.911,240.736 153.5,245.5 Z"/></g>
<g><path style="opacity:0.157" fill="#1e1e1e" d="M 200.5,239.5 C 201.052,241.703 202.385,242.536 204.5,242C 201.833,241.333 201.833,240.667 204.5,240C 203.288,238.893 203.621,238.393 205.5,238.5C 205.5,245.167 205.5,251.833 205.5,258.5C 204.272,255.868 203.772,253.202 204,250.5C 202.406,252.526 200.906,254.526 199.5,256.5C 196.247,260.007 192.58,260.341 188.5,257.5C 186.943,254.912 185.943,252.079 185.5,249C 186.606,247.118 186.606,245.284 185.5,243.5C 182.965,246.839 182.965,250.172 185.5,253.5C 185.333,254.167 185.167,254.833 185,255.5C 184.667,254.5 184.333,253.5 184,252.5C 183.257,254.441 183.424,256.274 184.5,258C 182.702,259.505 180.868,259.672 179,258.5C 178.614,256.138 178.78,253.638 179.5,251C 179.317,249.316 178.65,249.15 177.5,250.5C 177.527,247.61 178.693,246.61 181,247.5C 181.282,251.002 181.449,254.335 181.5,257.5C 182.496,251.537 182.829,245.537 182.5,239.5C 181.325,239.281 180.325,239.614 179.5,240.5C 177.651,244.198 175.818,247.864 174,251.5C 172.214,248.264 170.714,244.93 169.5,241.5C 169.5,240.833 169.5,240.167 169.5,239.5C 170.97,242.439 172.47,245.439 174,248.5C 175.691,244.953 177.524,241.453 179.5,238C 182.107,238.226 184.44,238.56 186.5,239C 185.483,240.049 185.316,241.216 186,242.5C 189.824,237.116 194.657,236.116 200.5,239.5 Z M 191.5,254.5 C 190.329,250.846 190.329,246.846 191.5,242.5C 194.888,241.213 196.888,242.547 197.5,246.5C 196.939,248.426 196.773,250.426 197,252.5C 195.556,254.155 193.722,254.822 191.5,254.5 Z M 203.5,247.5 C 201.656,246.796 201.156,245.463 202,243.5C 202.41,244.901 202.91,246.234 203.5,247.5 Z"/></g>
<g><path style="opacity:0.996" fill="#d5d5d5" d="M 191.5,242.5 C 190.883,242.611 190.383,242.944 190,243.5C 189.333,246.833 189.333,250.167 190,253.5C 190.383,254.056 190.883,254.389 191.5,254.5C 193.364,255.793 195.364,255.793 197.5,254.5C 198.244,251.557 198.744,248.557 199,245.5C 199.499,249.152 199.665,252.818 199.5,256.5C 191.443,259.765 187.443,257.098 187.5,248.5C 186.851,239.839 190.517,237.005 198.5,240C 200.559,241.185 200.726,242.352 199,243.5C 197.88,241.925 196.38,240.925 194.5,240.5C 192.962,240.453 191.962,241.12 191.5,242.5 Z"/></g>
<g><path style="opacity:0.004" fill="#000000" d="M 200.5,238.5 C 201.833,239.167 201.833,239.167 200.5,238.5 Z"/></g>
<g><path style="opacity:0.026" fill="#000000" d="M 109.5,243.5 C 111.326,245.455 111.826,247.788 111,250.5C 110.329,251.252 109.496,251.586 108.5,251.5C 108.5,249.5 108.5,247.5 108.5,245.5C 109.338,245.158 109.672,244.492 109.5,243.5 Z"/></g>
<g><path style="opacity:0.996" fill="#d1d1d1" d="M 153.5,245.5 C 154.404,246.209 154.737,247.209 154.5,248.5C 155.071,251.477 156.071,254.31 157.5,257C 156.552,257.483 155.552,257.649 154.5,257.5C 154.625,254.107 152.958,252.774 149.5,253.5C 146.042,252.774 144.375,254.107 144.5,257.5C 143.448,257.649 142.448,257.483 141.5,257C 142.38,255.644 142.714,254.144 142.5,252.5C 143.404,251.791 143.737,250.791 143.5,249.5C 145.915,246.66 147.248,243.327 147.5,239.5C 148.822,239.33 149.989,239.663 151,240.5C 151.374,242.491 152.207,244.158 153.5,245.5 Z M 150.5,245.5 C 150.5,245.833 150.5,246.167 150.5,246.5C 149.91,247.766 149.41,249.099 149,250.5C 148.123,248.326 148.623,246.659 150.5,245.5 Z"/></g>
<g><path style="opacity:0.004" fill="#000000" d="M 164.5,244.5 C 163.833,245.167 163.833,245.167 164.5,244.5 Z"/></g>
<g><path style="opacity:0.737" fill="#2b2b2b" d="M 223.5,238.5 C 227.701,237.264 232.035,237.264 236.5,238.5C 236.703,240.044 237.37,241.378 238.5,242.5C 238.577,244.542 237.91,246.542 236.5,248.5C 236.167,247.167 235.833,245.833 235.5,244.5C 236.833,244.167 236.833,243.833 235.5,243.5C 234.171,247.684 231.171,249.351 226.5,248.5C 226.5,245.833 226.5,243.167 226.5,240.5C 229.466,240.11 232.132,240.777 234.5,242.5C 235.711,241.726 235.711,240.893 234.5,240C 230.974,238.663 227.308,238.163 223.5,238.5 Z M 229.5,241.5 C 231.384,241.712 232.717,242.712 233.5,244.5C 232.009,246.012 230.176,247.012 228,247.5C 227.257,245.126 227.757,243.126 229.5,241.5 Z"/></g>
<g><path style="opacity:0.357" fill="#2c2c2c" d="M 104.5,239.5 C 104.248,243.327 102.915,246.66 100.5,249.5C 101.287,245.93 102.62,242.597 104.5,239.5 Z"/></g>
<g><path style="opacity:0.657" fill="#454545" d="M 191.5,242.5 C 190.329,246.846 190.329,250.846 191.5,254.5C 190.883,254.389 190.383,254.056 190,253.5C 189.333,250.167 189.333,246.833 190,243.5C 190.383,242.944 190.883,242.611 191.5,242.5 Z"/></g>
<g><path style="opacity:0.996" fill="#dcdcdc" d="M 216.5,245.5 C 217.686,246.705 217.686,248.039 216.5,249.5C 215.892,251.684 216.559,253.684 218.5,255.5C 218.737,256.791 218.404,257.791 217.5,258.5C 215.759,256.023 214.259,253.356 213,250.5C 211.644,249.62 210.144,249.286 208.5,249.5C 206.895,248.994 206.561,248.327 207.5,247.5C 210.855,247.909 213.855,247.242 216.5,245.5 Z"/></g>
<g><path style="opacity:0.424" fill="#1e1e1e" d="M 135.5,258.5 C 135.5,252.5 135.5,246.5 135.5,240.5C 137.288,240.785 138.955,240.452 140.5,239.5C 136.167,238.167 131.833,238.167 127.5,239.5C 129.045,240.452 130.712,240.785 132.5,240.5C 132.5,246.5 132.5,252.5 132.5,258.5C 131.624,258.631 130.957,258.298 130.5,257.5C 130.323,252.199 130.657,246.866 131.5,241.5C 126.806,242.447 122.14,242.78 117.5,242.5C 116.674,243.451 116.508,244.451 117,245.5C 118.765,246.239 120.765,246.239 123,245.5C 124.892,246.617 125.725,248.284 125.5,250.5C 122.5,250.5 119.5,250.5 116.5,250.5C 116.365,252.554 117.032,254.221 118.5,255.5C 117.5,255.5 116.5,255.5 115.5,255.5C 115.5,253.5 115.5,251.5 115.5,249.5C 127.5,248.833 127.5,248.167 115.5,247.5C 115.5,245.167 115.5,242.833 115.5,240.5C 119.329,241.069 122.663,240.402 125.5,238.5C 130.75,237.385 136.083,237.219 141.5,238C 142.731,239.183 142.731,240.349 141.5,241.5C 139.997,242.052 138.331,242.052 136.5,241.5C 136.334,246.179 136.501,250.845 137,255.5C 137.654,254.304 138.154,254.304 138.5,255.5C 138,256.5 137.5,257.5 137,258.5C 136.31,259.738 135.81,259.738 135.5,258.5 Z"/></g>
<g><path style="opacity:0.881" fill="#b3b3b3" d="M 135.5,258.5 C 134.348,259.625 133.348,259.625 132.5,258.5C 132.5,252.5 132.5,246.5 132.5,240.5C 130.712,240.785 129.045,240.452 127.5,239.5C 131.833,238.167 136.167,238.167 140.5,239.5C 138.955,240.452 137.288,240.785 135.5,240.5C 135.5,246.5 135.5,252.5 135.5,258.5 Z"/></g>
<g><path style="opacity:0.39" fill="#272727" d="M 240.5,211.5 C 246.201,219.869 251.701,228.535 257,237.5C 259.474,242.11 261.641,246.777 263.5,251.5C 261.272,248.728 259.272,245.728 257.5,242.5C 256.893,242.624 256.56,242.957 256.5,243.5C 256.262,248.436 255.595,253.602 254.5,259C 253.092,259.315 251.759,258.982 250.5,258C 251.777,255.534 251.777,253.034 250.5,250.5C 248.674,250.92 246.674,250.92 244.5,250.5C 246.948,249.527 249.615,249.194 252.5,249.5C 252.187,252.247 252.52,254.914 253.5,257.5C 254.833,251.5 254.833,245.5 253.5,239.5C 252.52,242.086 252.187,244.753 252.5,247.5C 249.5,247.5 246.5,247.5 243.5,247.5C 243.817,244.428 243.484,241.428 242.5,238.5C 242.167,239.333 241.833,240.167 241.5,241C 242.78,246.345 242.78,251.678 241.5,257C 241.836,258.03 242.503,258.53 243.5,258.5C 242.151,259.797 240.818,259.63 239.5,258C 239.539,255.703 239.872,253.37 240.5,251C 236.81,250.576 236.643,249.742 240,248.5C 240.056,245.733 240.222,243.067 240.5,240.5C 240.154,239.304 239.654,239.304 239,240.5C 238.536,239.906 238.369,239.239 238.5,238.5C 240.435,237.85 242.435,237.517 244.5,237.5C 244.335,240.518 244.502,243.518 245,246.5C 246.956,246.216 249.123,246.216 251.5,246.5C 251.5,243.5 251.5,240.5 251.5,237.5C 252.552,237.649 253.552,237.483 254.5,237C 250.377,229.251 245.877,221.751 241,214.5C 240.722,215.416 240.222,216.082 239.5,216.5C 239.167,216.5 238.833,216.5 238.5,216.5C 238.335,213.482 238.502,210.482 239,207.5C 239.791,208.745 240.291,210.078 240.5,211.5 Z"/></g>
<g><path style="opacity:0.004" fill="#000000" d="M 256.5,243.5 C 257.833,244.167 257.833,244.167 256.5,243.5 Z"/></g>
<g><path style="opacity:0.087" fill="#0e0e0e" d="M 105.5,257.5 C 105.5,257.833 105.5,258.167 105.5,258.5C 104.751,257.469 104.085,256.302 103.5,255C 104.807,253.057 104.807,251.223 103.5,249.5C 103.709,248.078 104.209,246.745 105,245.5C 105.499,249.486 105.666,253.486 105.5,257.5 Z"/></g>
<g><path style="opacity:0.898" fill="#9c9c9c" d="M 215.5,238.5 C 217.951,240.896 218.951,243.896 218.5,247.5C 218.5,248.833 217.833,249.5 216.5,249.5C 217.686,248.039 217.686,246.705 216.5,245.5C 215.958,242.197 213.958,240.197 210.5,239.5C 206.751,241.174 205.751,243.841 207.5,247.5C 206.561,248.327 206.895,248.994 208.5,249.5C 208.664,252.187 208.497,254.854 208,257.5C 207.329,258.252 206.496,258.586 205.5,258.5C 205.5,251.833 205.5,245.167 205.5,238.5C 208.731,237.218 212.064,237.218 215.5,238.5 Z M 209.5,241.5 C 210.806,241.879 212.139,242.212 213.5,242.5C 214.583,243.365 214.749,244.365 214,245.5C 212.602,246.051 211.268,246.384 210,246.5C 209.506,244.866 209.34,243.199 209.5,241.5 Z"/></g>
<g><path style="opacity:0.336" fill="#303030" d="M 216.5,245.5 C 213.855,247.242 210.855,247.909 207.5,247.5C 205.751,243.841 206.751,241.174 210.5,239.5C 213.958,240.197 215.958,242.197 216.5,245.5 Z M 209.5,241.5 C 209.34,243.199 209.506,244.866 210,246.5C 211.268,246.384 212.602,246.051 214,245.5C 214.749,244.365 214.583,243.365 213.5,242.5C 212.139,242.212 210.806,241.879 209.5,241.5 Z"/></g>
<g><path style="opacity:0.037" fill="#0f0f0f" d="M 143.5,249.5 C 143.737,250.791 143.404,251.791 142.5,252.5C 141.185,251.105 141.519,250.105 143.5,249.5 Z"/></g>
<g><path style="opacity:0.776" fill="#aaaaaa" d="M 223.5,238.5 C 227.308,238.163 230.974,238.663 234.5,240C 235.711,240.893 235.711,241.726 234.5,242.5C 232.132,240.777 229.466,240.11 226.5,240.5C 226.5,243.167 226.5,245.833 226.5,248.5C 231.171,249.351 234.171,247.684 235.5,243.5C 235.5,243.833 235.5,244.167 235.5,244.5C 235.833,245.833 236.167,247.167 236.5,248.5C 234.973,248.427 233.973,249.094 233.5,250.5C 231.167,250.5 228.833,250.5 226.5,250.5C 226.5,253.167 226.5,255.833 226.5,258.5C 225.652,259.625 224.652,259.625 223.5,258.5C 223.5,251.833 223.5,245.167 223.5,238.5 Z"/></g>
<g><path style="opacity:0.267" fill="#222222" d="M 236.5,248.5 C 236.179,250.048 235.179,250.715 233.5,250.5C 233.973,249.094 234.973,248.427 236.5,248.5 Z"/></g>
<g><path style="opacity:0.941" fill="#cfcfcf" d="M 244.5,250.5 C 243.527,252.948 243.194,255.615 243.5,258.5C 242.503,258.53 241.836,258.03 241.5,257C 242.78,251.678 242.78,246.345 241.5,241C 241.833,240.167 242.167,239.333 242.5,238.5C 243.484,241.428 243.817,244.428 243.5,247.5C 246.5,247.5 249.5,247.5 252.5,247.5C 252.187,244.753 252.52,242.086 253.5,239.5C 254.833,245.5 254.833,251.5 253.5,257.5C 252.52,254.914 252.187,252.247 252.5,249.5C 249.615,249.194 246.948,249.527 244.5,250.5 Z"/></g>
<g><path style="opacity:0.02" fill="#000000" d="M 248.5,244.5 C 249.833,245.167 249.833,245.167 248.5,244.5 Z"/></g>
<g><path style="opacity:0.31" fill="#1c1c1c" d="M 150.5,245.5 C 148.623,246.659 148.123,248.326 149,250.5C 149.41,249.099 149.91,247.766 150.5,246.5C 151.338,246.842 151.672,247.508 151.5,248.5C 152.404,249.209 152.737,250.209 152.5,251.5C 150.5,251.5 148.5,251.5 146.5,251.5C 146.721,248.608 147.554,245.941 149,243.5C 149.717,244.044 150.217,244.711 150.5,245.5 Z"/></g>
<g><path style="opacity:0.996" fill="#dcdcdc" d="M 104.5,239.5 C 105.5,239.5 106.5,239.5 107.5,239.5C 107.64,241.124 106.973,242.29 105.5,243C 106.167,247.667 106.833,252.333 107.5,257C 106.906,257.464 106.239,257.631 105.5,257.5C 105.666,253.486 105.499,249.486 105,245.5C 104.209,246.745 103.709,248.078 103.5,249.5C 102.207,250.842 101.374,252.509 101,254.5C 100.329,255.252 99.4959,255.586 98.5,255.5C 98.5979,253.447 97.9313,251.78 96.5,250.5C 96.3691,249.624 96.7025,248.957 97.5,248.5C 98.3333,249.5 99.1667,250.5 100,251.5C 100.464,250.906 100.631,250.239 100.5,249.5C 102.915,246.66 104.248,243.327 104.5,239.5 Z"/></g>
<g><path style="opacity:0.333" fill="#292929" d="M 216.5,249.5 C 217.73,251.297 218.396,253.297 218.5,255.5C 216.559,253.684 215.892,251.684 216.5,249.5 Z"/></g>
<g><path style="opacity:0.092" fill="#050505" d="M 233.5,250.5 C 231.542,251.91 229.542,252.577 227.5,252.5C 228.586,254.658 228.253,256.658 226.5,258.5C 226.5,255.833 226.5,253.167 226.5,250.5C 228.833,250.5 231.167,250.5 233.5,250.5 Z"/></g>
<g><path style="opacity:0.018" fill="#000000" d="M 109.5,253.5 C 109.897,252.475 110.563,252.308 111.5,253C 110.906,253.464 110.239,253.631 109.5,253.5 Z"/></g>
<g><path style="opacity:0.318" fill="#171717" d="M 125.5,238.5 C 121.5,238.5 117.5,238.5 113.5,238.5C 113.5,244.833 113.5,251.167 113.5,257.5C 113.5,257.833 113.5,258.167 113.5,258.5C 112.624,258.631 111.957,258.298 111.5,257.5C 112.253,249.157 112.253,242.824 111.5,238.5C 112.478,238.023 113.311,237.357 114,236.5C 117.935,237.138 121.769,237.804 125.5,238.5 Z"/></g>
<g><path style="opacity:0.376" fill="#292929" d="M 96.5,250.5 C 97.9313,251.78 98.5979,253.447 98.5,255.5C 97.0687,254.22 96.4021,252.553 96.5,250.5 Z"/></g>
<g><path style="opacity:0.063" fill="#131313" d="M 177.5,251.5 C 177.354,254.111 176.188,256.111 174,257.5C 172.89,255.963 171.39,255.297 169.5,255.5C 169.528,259.484 167.861,260.484 164.5,258.5C 164.777,255.552 164.444,252.719 163.5,250C 164.094,249.536 164.761,249.369 165.5,249.5C 165.194,252.385 165.527,255.052 166.5,257.5C 168.26,254.299 169.094,250.633 169,246.5C 170.897,249.127 172.397,251.961 173.5,255C 173.833,255.167 174.167,255.333 174.5,255.5C 175.15,253.816 176.15,252.483 177.5,251.5 Z M 169.5,250.5 C 170.848,251.527 171.348,252.86 171,254.5C 169.812,253.437 169.312,252.103 169.5,250.5 Z"/></g>
<g><path style="opacity:0.984" fill="#d7d7d7" d="M 177.5,250.5 C 177.5,250.833 177.5,251.167 177.5,251.5C 176.15,252.483 175.15,253.816 174.5,255.5C 174.167,255.333 173.833,255.167 173.5,255C 172.397,251.961 170.897,249.127 169,246.5C 169.094,250.633 168.26,254.299 166.5,257.5C 167.829,253.519 167.829,249.519 166.5,245.5C 166.754,243.583 167.754,242.249 169.5,241.5C 170.714,244.93 172.214,248.264 174,251.5C 175.818,247.864 177.651,244.198 179.5,240.5C 180.325,239.614 181.325,239.281 182.5,239.5C 182.829,245.537 182.496,251.537 181.5,257.5C 181.449,254.335 181.282,251.002 181,247.5C 178.693,246.61 177.527,247.61 177.5,250.5 Z M 169.5,250.5 C 169.312,252.103 169.812,253.437 171,254.5C 171.348,252.86 170.848,251.527 169.5,250.5 Z"/></g>
<g><path style="opacity:0.278" fill="#1b1b1b" d="M 208.5,249.5 C 210.144,249.286 211.644,249.62 213,250.5C 214.259,253.356 215.759,256.023 217.5,258.5C 214.8,257.8 213.133,256.134 212.5,253.5C 211.055,255.133 209.721,256.966 208.5,259C 207.251,259.74 206.251,259.573 205.5,258.5C 206.496,258.586 207.329,258.252 208,257.5C 208.497,254.854 208.664,252.187 208.5,249.5 Z M 212.5,253.5 C 211.85,253.804 211.183,254.137 210.5,254.5C 209.167,253.167 209.167,251.833 210.5,250.5C 211.919,251.005 212.585,252.005 212.5,253.5 Z"/></g>
<g><path style="opacity:0.047" fill="#202020" d="M 103.5,249.5 C 103.313,251.564 102.813,253.564 102,255.5C 100.708,256.791 99.5417,256.791 98.5,255.5C 99.4959,255.586 100.329,255.252 101,254.5C 101.374,252.509 102.207,250.842 103.5,249.5 Z"/></g>
<g><path style="opacity:0.714" fill="#484848" d="M 109.5,243.5 C 108.662,243.842 108.328,244.508 108.5,245.5C 108.5,247.5 108.5,249.5 108.5,251.5C 108.328,252.492 108.662,253.158 109.5,253.5C 109.66,255.199 109.494,256.866 109,258.5C 107.708,259.791 106.542,259.791 105.5,258.5C 105.5,258.167 105.5,257.833 105.5,257.5C 106.239,257.631 106.906,257.464 107.5,257C 106.833,252.333 106.167,247.667 105.5,243C 106.973,242.29 107.64,241.124 107.5,239.5C 106.5,239.5 105.5,239.5 104.5,239.5C 105.204,237.656 106.537,237.156 108.5,238C 108.205,239.714 108.538,241.547 109.5,243.5 Z"/></g>
<g><path style="opacity:0.745" fill="#6d6d6d" d="M 113.5,258.5 C 113.5,258.167 113.5,257.833 113.5,257.5C 114.833,257.5 115.5,256.833 115.5,255.5C 116.5,255.5 117.5,255.5 118.5,255.5C 121.604,254.136 124.604,254.302 127.5,256C 126.088,257.791 124.255,258.958 122,259.5C 119.45,259.045 116.616,258.711 113.5,258.5 Z"/></g>
<g><path style="opacity:0.024" fill="#000000" d="M 96.5,256.5 C 97.8333,257.167 97.8333,257.167 96.5,256.5 Z"/></g>
<g><path style="opacity:0.349" fill="#1e1e1e" d="M 244.5,250.5 C 244.232,253.119 244.565,255.619 245.5,258C 244.906,258.464 244.239,258.631 243.5,258.5C 243.194,255.615 243.527,252.948 244.5,250.5 Z"/></g>
<g><path style="opacity:0.09" fill="#282828" d="M 154.5,248.5 C 156.432,251.409 158.099,254.576 159.5,258C 157.973,259.368 156.473,259.868 155,259.5C 153.907,257.651 152.574,255.984 151,254.5C 150.15,255.424 149.15,255.424 148,254.5C 145.98,255.032 145.147,256.365 145.5,258.5C 138.55,259.822 137.55,257.822 142.5,252.5C 142.714,254.144 142.38,255.644 141.5,257C 142.448,257.483 143.448,257.649 144.5,257.5C 144.375,254.107 146.042,252.774 149.5,253.5C 152.958,252.774 154.625,254.107 154.5,257.5C 155.552,257.649 156.552,257.483 157.5,257C 156.071,254.31 155.071,251.477 154.5,248.5 Z"/></g>
<g><path style="opacity:0.016" fill="#272727" d="M 263.5,251.5 C 269.075,258.97 273.908,266.97 278,275.5C 278.171,267.323 278.671,259.323 279.5,251.5C 280.096,260.166 280.262,268.832 280,277.5C 279.586,277.957 279.086,278.291 278.5,278.5C 273.024,269.709 268.024,260.709 263.5,251.5 Z"/></g>
</svg>
