<?xml version="1.0" encoding="UTF-8"?>
<!DOCTYPE svg PUBLIC "-//W3C//DTD SVG 1.1//EN" "http://www.w3.org/Graphics/SVG/1.1/DTD/svg11.dtd">
<svg xmlns="http://www.w3.org/2000/svg" version="1.1" width="50px" height="50px" style="shape-rendering:geometricPrecision; text-rendering:geometricPrecision; image-rendering:optimizeQuality; fill-rule:evenodd; clip-rule:evenodd" xmlns:xlink="http://www.w3.org/1999/xlink">
<g><path style="opacity:0.826" fill="#000000" d="M 13.5,12.5 C 21.9174,12.0943 30.2508,12.5943 38.5,14C 39,14.5 39.5,15 40,15.5C 40.6667,21.5 40.6667,27.5 40,33.5C 38.8289,34.8932 37.3289,35.7265 35.5,36C 27.0887,36.9054 18.7554,36.5721 10.5,35C 10,34.5 9.5,34 9,33.5C 8.33333,27.5 8.33333,21.5 9,15.5C 10.4087,14.2189 11.9087,13.2189 13.5,12.5 Z M 22.5,20.5 C 24.6365,21.4026 26.6365,22.5693 28.5,24C 26.6667,25.1667 24.8333,26.3333 23,27.5C 22.5034,25.1902 22.3367,22.8568 22.5,20.5 Z"/></g>
</svg>
